<svg width="83" height="82" viewBox="0 0 83 82" fill="none" xmlns="http://www.w3.org/2000/svg">
<rect width="38.3216" height="7.08793" transform="matrix(0.92691 0.375285 -0.424633 0.905366 46.6913 0)" fill="black"/>
<rect width="38.3216" height="7.08793" transform="matrix(0.92691 0.375285 -0.424633 0.905366 34.2223 26.5854)" fill="black"/>
<rect width="36.4522" height="7.88974" transform="matrix(-0.424633 0.905366 -0.92691 -0.375285 54.0044 2.96091)" fill="black"/>
<rect width="36.4522" height="7.88974" transform="matrix(-0.424633 0.905366 -0.92691 -0.375285 82.212 14.3815)" fill="black"/>
<rect width="22.677" height="4.40942" transform="matrix(0.732597 0.680663 -0.732597 0.680663 16.6131 29)" fill="black"/>
<rect width="22.677" height="4.40942" transform="matrix(0.732597 0.680663 -0.732597 0.680663 3.23032 41.4341)" fill="black"/>
<rect width="22.677" height="4.6688" transform="matrix(-0.732597 0.680663 -0.732597 -0.680663 20.0335 32.1779)" fill="black"/>
<rect width="22.677" height="4.6688" transform="matrix(-0.732597 0.680663 -0.732597 -0.680663 33.2262 44.4354)" fill="black"/>
<rect x="56.8597" y="60" width="21.829" height="4.56837" transform="rotate(90 56.8597 60)" fill="black"/>
<rect x="37.9336" y="60" width="21.829" height="4.56837" transform="rotate(90 37.9336 60)" fill="black"/>
<rect x="56.8597" y="64.4942" width="23.4945" height="4.4942" transform="rotate(-180 56.8597 64.4942)" fill="black"/>
<rect x="56.8597" y="81.8289" width="23.4945" height="4.4942" transform="rotate(-180 56.8597 81.8289)" fill="black"/>
</svg>
