<svg width="55" height="59" viewBox="0 0 55 59" fill="none" xmlns="http://www.w3.org/2000/svg">
<rect x="31.1881" width="25.8813" height="5.03248" transform="rotate(23.5461 31.1881 0)" fill="black"/>
<rect x="22.8592" y="19.1129" width="25.8813" height="5.03248" transform="rotate(23.5461 22.8592 19.1129)" fill="black"/>
<rect x="36.0729" y="2.12866" width="25.8813" height="5.32851" transform="rotate(113.546 36.0729 2.12866)" fill="black"/>
<rect x="54.9145" y="10.3392" width="25.8813" height="5.32851" transform="rotate(113.546 54.9145 10.3392)" fill="black"/>
<rect x="11.0969" y="20.8488" width="15.6934" height="3.0515" transform="rotate(45 11.0969 20.8488)" fill="black"/>
<rect x="2.15774" y="29.788" width="15.6934" height="3.0515" transform="rotate(45 2.15774 29.788)" fill="black"/>
<rect x="13.3816" y="23.1335" width="15.6934" height="3.231" transform="rotate(135 13.3816 23.1335)" fill="black"/>
<rect x="22.1939" y="31.9458" width="15.6934" height="3.231" transform="rotate(135 22.1939 31.9458)" fill="black"/>
<rect x="37.9801" y="43.1355" width="15.6934" height="3.0515" transform="rotate(90 37.9801 43.1355)" fill="black"/>
<rect x="25.3382" y="43.1355" width="15.6934" height="3.0515" transform="rotate(90 25.3382 43.1355)" fill="black"/>
<rect x="37.9801" y="46.3665" width="15.6934" height="3.231" transform="rotate(-180 37.9801 46.3665)" fill="black"/>
<rect x="37.9801" y="58.829" width="15.6934" height="3.231" transform="rotate(-180 37.9801 58.829)" fill="black"/>
</svg>
