<svg width="43" height="46" viewBox="0 0 43 46" fill="none" xmlns="http://www.w3.org/2000/svg">
<rect x="24.2961" width="20.1621" height="3.92041" transform="rotate(23.5461 24.2961 0)" fill="black"/>
<rect x="17.8078" y="14.8894" width="20.1621" height="3.92041" transform="rotate(23.5461 17.8078 14.8894)" fill="black"/>
<rect x="28.1016" y="1.65828" width="20.1621" height="4.15102" transform="rotate(113.546 28.1016 1.65828)" fill="black"/>
<rect x="42.7795" y="8.05447" width="20.1621" height="4.15102" transform="rotate(113.546 42.7795 8.05447)" fill="black"/>
<rect x="8.64474" y="16.2417" width="12.2255" height="2.37718" transform="rotate(45 8.64474 16.2417)" fill="black"/>
<rect x="1.68094" y="23.2055" width="12.2255" height="2.37718" transform="rotate(45 1.68094 23.2055)" fill="black"/>
<rect x="10.4245" y="18.0215" width="12.2255" height="2.51701" transform="rotate(135 10.4245 18.0215)" fill="black"/>
<rect x="17.2895" y="24.8864" width="12.2255" height="2.51701" transform="rotate(135 17.2895 24.8864)" fill="black"/>
<rect x="29.5873" y="33.6035" width="12.2255" height="2.37718" transform="rotate(90 29.5873 33.6035)" fill="black"/>
<rect x="19.739" y="33.6035" width="12.2255" height="2.37718" transform="rotate(90 19.739 33.6035)" fill="black"/>
<rect x="29.5873" y="36.1205" width="12.2255" height="2.51701" transform="rotate(-180 29.5873 36.1205)" fill="black"/>
<rect x="29.5873" y="45.829" width="12.2255" height="2.51701" transform="rotate(-180 29.5873 45.829)" fill="black"/>
</svg>
