<svg width="83" height="82" viewBox="0 0 83 82" fill="none" xmlns="http://www.w3.org/2000/svg">
<g clip-path="url(#clip0_57_1563)">
<path d="M82.212 14.3815L46.6913 0L43.6815 6.41717L79.2022 20.7987L82.212 14.3815Z" fill="#D9D9D9"/>
<path d="M69.743 40.9669L34.2223 26.5854L31.2125 33.0026L66.7332 47.3841L69.743 40.9669Z" fill="#D9D9D9"/>
<path d="M38.5256 35.9635L54.0044 2.96094L46.6913 3.64308e-05L31.2125 33.0026L38.5256 35.9635Z" fill="#D9D9D9"/>
<path d="M66.7332 47.3841L82.212 14.3815L74.8989 11.4206L59.4201 44.4232L66.7332 47.3841Z" fill="#D9D9D9"/>
<path d="M33.2262 44.4354L16.6131 29L13.3828 32.0013L29.9959 47.4367L33.2262 44.4354Z" fill="#D9D9D9"/>
<path d="M19.8434 56.8695L3.23032 41.4341L-1.16826e-05 44.4354L16.6131 59.8708L19.8434 56.8695Z" fill="#D9D9D9"/>
<path d="M3.42041 47.6133L20.0335 32.1779L16.6132 29L5.74938e-05 44.4354L3.42041 47.6133Z" fill="#D9D9D9"/>
<path d="M16.6131 59.8708L33.2262 44.4354L29.8058 41.2575L13.1927 56.6929L16.6131 59.8708Z" fill="#D9D9D9"/>
<path d="M56.8597 81.829V60H52.2913V81.829H56.8597Z" fill="#D9D9D9"/>
<path d="M37.9336 81.829V60H33.3652V81.829H37.9336Z" fill="#D9D9D9"/>
<path d="M33.3652 64.4942H56.8597V60H33.3652V64.4942Z" fill="#D9D9D9"/>
<path d="M33.3652 81.8289H56.8597V77.3347H33.3652V81.8289Z" fill="#D9D9D9"/>
</g>
<defs>
<clipPath id="clip0_57_1563">
<rect width="83" height="82" fill="white"/>
</clipPath>
</defs>
</svg>
